<mxfile host="app.diagrams.net" agent="Mozilla/5.0 (X11; Linux x86_64) AppleWebKit/537.36 (KHTML, like Gecko) Chrome/133.0.0.0 Safari/537.36" version="27.2.0">
  <diagram name="Page-1" id="14ZmN-vFK5WcEDnTIiB2">
    <mxGraphModel dx="2775" dy="1328" grid="1" gridSize="10" guides="1" tooltips="1" connect="1" arrows="1" fold="1" page="1" pageScale="1" pageWidth="850" pageHeight="1100" math="0" shadow="0">
      <root>
        <mxCell id="0" />
        <mxCell id="1" parent="0" />
        <mxCell id="t1kR70HvfgsUBX_H_cAn-53" style="edgeStyle=orthogonalEdgeStyle;rounded=0;orthogonalLoop=1;jettySize=auto;html=1;labelBackgroundColor=none;strokeColor=#182E3E;fontColor=default;" edge="1" parent="1" source="t1kR70HvfgsUBX_H_cAn-1" target="t1kR70HvfgsUBX_H_cAn-2">
          <mxGeometry relative="1" as="geometry" />
        </mxCell>
        <mxCell id="t1kR70HvfgsUBX_H_cAn-1" value="&lt;font style=&quot;color: rgb(242, 242, 242);&quot;&gt;Start&lt;/font&gt;" style="ellipse;whiteSpace=wrap;html=1;labelBackgroundColor=none;fillColor=#F5AB50;strokeColor=#909090;fontColor=#1A1A1A;" vertex="1" parent="1">
          <mxGeometry x="147" y="45" width="90" height="50" as="geometry" />
        </mxCell>
        <mxCell id="t1kR70HvfgsUBX_H_cAn-55" style="edgeStyle=orthogonalEdgeStyle;rounded=0;orthogonalLoop=1;jettySize=auto;html=1;entryX=0.5;entryY=0;entryDx=0;entryDy=0;labelBackgroundColor=none;strokeColor=#182E3E;fontColor=default;" edge="1" parent="1" source="t1kR70HvfgsUBX_H_cAn-2" target="t1kR70HvfgsUBX_H_cAn-3">
          <mxGeometry relative="1" as="geometry" />
        </mxCell>
        <mxCell id="t1kR70HvfgsUBX_H_cAn-2" value="Enter Percentage" style="rounded=0;whiteSpace=wrap;html=1;labelBackgroundColor=none;fillColor=#F5AB50;strokeColor=#909090;fontColor=#1A1A1A;" vertex="1" parent="1">
          <mxGeometry x="70" y="125" width="245" height="40" as="geometry" />
        </mxCell>
        <mxCell id="t1kR70HvfgsUBX_H_cAn-65" style="edgeStyle=orthogonalEdgeStyle;rounded=0;orthogonalLoop=1;jettySize=auto;html=1;entryX=0;entryY=0.5;entryDx=0;entryDy=0;labelBackgroundColor=none;strokeColor=#182E3E;fontColor=default;" edge="1" parent="1" source="t1kR70HvfgsUBX_H_cAn-3" target="t1kR70HvfgsUBX_H_cAn-19">
          <mxGeometry relative="1" as="geometry" />
        </mxCell>
        <mxCell id="t1kR70HvfgsUBX_H_cAn-66" style="edgeStyle=orthogonalEdgeStyle;rounded=0;orthogonalLoop=1;jettySize=auto;html=1;entryX=0.5;entryY=0;entryDx=0;entryDy=0;labelBackgroundColor=none;strokeColor=#182E3E;fontColor=default;" edge="1" parent="1" source="t1kR70HvfgsUBX_H_cAn-3" target="t1kR70HvfgsUBX_H_cAn-4">
          <mxGeometry relative="1" as="geometry" />
        </mxCell>
        <mxCell id="t1kR70HvfgsUBX_H_cAn-3" value="41&amp;lt;per&amp;lt;47" style="rhombus;whiteSpace=wrap;html=1;labelBackgroundColor=none;fillColor=#F5AB50;strokeColor=#909090;fontColor=#1A1A1A;" vertex="1" parent="1">
          <mxGeometry x="152" y="195" width="80" height="80" as="geometry" />
        </mxCell>
        <mxCell id="t1kR70HvfgsUBX_H_cAn-64" style="edgeStyle=orthogonalEdgeStyle;rounded=0;orthogonalLoop=1;jettySize=auto;html=1;entryX=0;entryY=0.5;entryDx=0;entryDy=0;labelBackgroundColor=none;strokeColor=#182E3E;fontColor=default;" edge="1" parent="1" source="t1kR70HvfgsUBX_H_cAn-4" target="t1kR70HvfgsUBX_H_cAn-20">
          <mxGeometry relative="1" as="geometry" />
        </mxCell>
        <mxCell id="t1kR70HvfgsUBX_H_cAn-99" style="edgeStyle=orthogonalEdgeStyle;rounded=0;orthogonalLoop=1;jettySize=auto;html=1;strokeColor=#182E3E;fontColor=#1A1A1A;" edge="1" parent="1" source="t1kR70HvfgsUBX_H_cAn-4" target="t1kR70HvfgsUBX_H_cAn-6">
          <mxGeometry relative="1" as="geometry" />
        </mxCell>
        <mxCell id="t1kR70HvfgsUBX_H_cAn-4" value="47&amp;lt;per&amp;lt;52" style="rhombus;whiteSpace=wrap;html=1;labelBackgroundColor=none;fillColor=#F5AB50;strokeColor=#909090;fontColor=#1A1A1A;" vertex="1" parent="1">
          <mxGeometry x="152" y="305" width="80" height="80" as="geometry" />
        </mxCell>
        <mxCell id="t1kR70HvfgsUBX_H_cAn-58" style="edgeStyle=orthogonalEdgeStyle;rounded=0;orthogonalLoop=1;jettySize=auto;html=1;labelBackgroundColor=none;strokeColor=#182E3E;fontColor=default;" edge="1" parent="1" source="t1kR70HvfgsUBX_H_cAn-5">
          <mxGeometry relative="1" as="geometry">
            <mxPoint x="192" y="620" as="targetPoint" />
          </mxGeometry>
        </mxCell>
        <mxCell id="t1kR70HvfgsUBX_H_cAn-74" style="edgeStyle=orthogonalEdgeStyle;rounded=0;orthogonalLoop=1;jettySize=auto;html=1;entryX=0;entryY=0.5;entryDx=0;entryDy=0;labelBackgroundColor=none;strokeColor=#182E3E;fontColor=default;" edge="1" parent="1" source="t1kR70HvfgsUBX_H_cAn-5" target="t1kR70HvfgsUBX_H_cAn-22">
          <mxGeometry relative="1" as="geometry" />
        </mxCell>
        <mxCell id="t1kR70HvfgsUBX_H_cAn-5" value="58&amp;lt;per&amp;lt;68" style="rhombus;whiteSpace=wrap;html=1;labelBackgroundColor=none;fillColor=#F5AB50;strokeColor=#909090;fontColor=#1A1A1A;" vertex="1" parent="1">
          <mxGeometry x="152" y="515" width="80" height="80" as="geometry" />
        </mxCell>
        <mxCell id="t1kR70HvfgsUBX_H_cAn-57" style="edgeStyle=orthogonalEdgeStyle;rounded=0;orthogonalLoop=1;jettySize=auto;html=1;entryX=0.5;entryY=0;entryDx=0;entryDy=0;labelBackgroundColor=none;strokeColor=#182E3E;fontColor=default;" edge="1" parent="1" source="t1kR70HvfgsUBX_H_cAn-6" target="t1kR70HvfgsUBX_H_cAn-5">
          <mxGeometry relative="1" as="geometry" />
        </mxCell>
        <mxCell id="t1kR70HvfgsUBX_H_cAn-73" style="edgeStyle=orthogonalEdgeStyle;rounded=0;orthogonalLoop=1;jettySize=auto;html=1;entryX=0;entryY=0.5;entryDx=0;entryDy=0;labelBackgroundColor=none;strokeColor=#182E3E;fontColor=default;" edge="1" parent="1" source="t1kR70HvfgsUBX_H_cAn-6" target="t1kR70HvfgsUBX_H_cAn-21">
          <mxGeometry relative="1" as="geometry" />
        </mxCell>
        <mxCell id="t1kR70HvfgsUBX_H_cAn-6" value="52&amp;lt;per&amp;lt;58" style="rhombus;whiteSpace=wrap;html=1;labelBackgroundColor=none;fillColor=#F5AB50;strokeColor=#909090;fontColor=#1A1A1A;" vertex="1" parent="1">
          <mxGeometry x="152" y="405" width="80" height="80" as="geometry" />
        </mxCell>
        <mxCell id="t1kR70HvfgsUBX_H_cAn-59" style="edgeStyle=orthogonalEdgeStyle;rounded=0;orthogonalLoop=1;jettySize=auto;html=1;entryX=0.5;entryY=0;entryDx=0;entryDy=0;labelBackgroundColor=none;strokeColor=#182E3E;fontColor=default;" edge="1" parent="1" source="t1kR70HvfgsUBX_H_cAn-7" target="t1kR70HvfgsUBX_H_cAn-8">
          <mxGeometry relative="1" as="geometry" />
        </mxCell>
        <mxCell id="t1kR70HvfgsUBX_H_cAn-61" style="edgeStyle=orthogonalEdgeStyle;rounded=0;orthogonalLoop=1;jettySize=auto;html=1;entryX=0;entryY=0.5;entryDx=0;entryDy=0;labelBackgroundColor=none;strokeColor=#182E3E;fontColor=default;" edge="1" parent="1" source="t1kR70HvfgsUBX_H_cAn-7" target="t1kR70HvfgsUBX_H_cAn-23">
          <mxGeometry relative="1" as="geometry" />
        </mxCell>
        <mxCell id="t1kR70HvfgsUBX_H_cAn-7" value="68&amp;lt;per&amp;lt;78" style="rhombus;whiteSpace=wrap;html=1;labelBackgroundColor=none;fillColor=#F5AB50;strokeColor=#909090;fontColor=#1A1A1A;" vertex="1" parent="1">
          <mxGeometry x="152" y="625" width="80" height="80" as="geometry" />
        </mxCell>
        <mxCell id="t1kR70HvfgsUBX_H_cAn-60" style="edgeStyle=orthogonalEdgeStyle;rounded=0;orthogonalLoop=1;jettySize=auto;html=1;entryX=0;entryY=0.5;entryDx=0;entryDy=0;labelBackgroundColor=none;strokeColor=#182E3E;fontColor=default;" edge="1" parent="1" source="t1kR70HvfgsUBX_H_cAn-8" target="t1kR70HvfgsUBX_H_cAn-24">
          <mxGeometry relative="1" as="geometry" />
        </mxCell>
        <mxCell id="t1kR70HvfgsUBX_H_cAn-76" style="edgeStyle=orthogonalEdgeStyle;rounded=0;orthogonalLoop=1;jettySize=auto;html=1;entryX=0.5;entryY=0;entryDx=0;entryDy=0;labelBackgroundColor=none;strokeColor=#182E3E;fontColor=default;" edge="1" parent="1" source="t1kR70HvfgsUBX_H_cAn-8" target="t1kR70HvfgsUBX_H_cAn-10">
          <mxGeometry relative="1" as="geometry" />
        </mxCell>
        <mxCell id="t1kR70HvfgsUBX_H_cAn-8" value="per&amp;gt;73" style="rhombus;whiteSpace=wrap;html=1;labelBackgroundColor=none;fillColor=#F5AB50;strokeColor=#909090;fontColor=#1A1A1A;" vertex="1" parent="1">
          <mxGeometry x="152" y="735" width="80" height="80" as="geometry" />
        </mxCell>
        <mxCell id="t1kR70HvfgsUBX_H_cAn-72" style="edgeStyle=orthogonalEdgeStyle;rounded=0;orthogonalLoop=1;jettySize=auto;html=1;entryX=0;entryY=0.5;entryDx=0;entryDy=0;labelBackgroundColor=none;strokeColor=#182E3E;fontColor=default;" edge="1" parent="1" source="t1kR70HvfgsUBX_H_cAn-10" target="t1kR70HvfgsUBX_H_cAn-25">
          <mxGeometry relative="1" as="geometry" />
        </mxCell>
        <mxCell id="t1kR70HvfgsUBX_H_cAn-10" value="else" style="rhombus;whiteSpace=wrap;html=1;labelBackgroundColor=none;fillColor=#F5AB50;strokeColor=#909090;fontColor=#1A1A1A;" vertex="1" parent="1">
          <mxGeometry x="152" y="850" width="80" height="80" as="geometry" />
        </mxCell>
        <mxCell id="t1kR70HvfgsUBX_H_cAn-18" value="Stop" style="ellipse;whiteSpace=wrap;html=1;labelBackgroundColor=none;fillColor=#F5AB50;strokeColor=#909090;fontColor=#1A1A1A;" vertex="1" parent="1">
          <mxGeometry x="147.5" y="970" width="90" height="50" as="geometry" />
        </mxCell>
        <mxCell id="t1kR70HvfgsUBX_H_cAn-79" style="edgeStyle=orthogonalEdgeStyle;rounded=0;orthogonalLoop=1;jettySize=auto;html=1;strokeColor=#182E3E;fontColor=#1A1A1A;entryX=1;entryY=0.5;entryDx=0;entryDy=0;" edge="1" parent="1" source="t1kR70HvfgsUBX_H_cAn-19" target="t1kR70HvfgsUBX_H_cAn-18">
          <mxGeometry relative="1" as="geometry">
            <mxPoint x="650" y="1000" as="targetPoint" />
            <Array as="points">
              <mxPoint x="651" y="235" />
              <mxPoint x="651" y="1000" />
              <mxPoint x="238" y="1000" />
            </Array>
          </mxGeometry>
        </mxCell>
        <mxCell id="t1kR70HvfgsUBX_H_cAn-19" value="F Grade" style="shape=parallelogram;perimeter=parallelogramPerimeter;whiteSpace=wrap;html=1;fixedSize=1;labelBackgroundColor=none;fillColor=#F5AB50;strokeColor=#909090;fontColor=#1A1A1A;" vertex="1" parent="1">
          <mxGeometry x="315" y="210" width="260" height="50" as="geometry" />
        </mxCell>
        <mxCell id="t1kR70HvfgsUBX_H_cAn-82" style="edgeStyle=orthogonalEdgeStyle;rounded=0;orthogonalLoop=1;jettySize=auto;html=1;strokeColor=#182E3E;fontColor=#1A1A1A;" edge="1" parent="1" source="t1kR70HvfgsUBX_H_cAn-20">
          <mxGeometry relative="1" as="geometry">
            <mxPoint x="650" y="345" as="targetPoint" />
          </mxGeometry>
        </mxCell>
        <mxCell id="t1kR70HvfgsUBX_H_cAn-20" value="E Grade" style="shape=parallelogram;perimeter=parallelogramPerimeter;whiteSpace=wrap;html=1;fixedSize=1;labelBackgroundColor=none;fillColor=#F5AB50;strokeColor=#909090;fontColor=#1A1A1A;" vertex="1" parent="1">
          <mxGeometry x="315" y="320" width="260" height="50" as="geometry" />
        </mxCell>
        <mxCell id="t1kR70HvfgsUBX_H_cAn-83" style="edgeStyle=orthogonalEdgeStyle;rounded=0;orthogonalLoop=1;jettySize=auto;html=1;strokeColor=#182E3E;fontColor=#1A1A1A;" edge="1" parent="1" source="t1kR70HvfgsUBX_H_cAn-21">
          <mxGeometry relative="1" as="geometry">
            <mxPoint x="650" y="445" as="targetPoint" />
          </mxGeometry>
        </mxCell>
        <mxCell id="t1kR70HvfgsUBX_H_cAn-21" value="D Grade" style="shape=parallelogram;perimeter=parallelogramPerimeter;whiteSpace=wrap;html=1;fixedSize=1;labelBackgroundColor=none;fillColor=#F5AB50;strokeColor=#909090;fontColor=#1A1A1A;" vertex="1" parent="1">
          <mxGeometry x="315" y="420" width="260" height="50" as="geometry" />
        </mxCell>
        <mxCell id="t1kR70HvfgsUBX_H_cAn-84" style="edgeStyle=orthogonalEdgeStyle;rounded=0;orthogonalLoop=1;jettySize=auto;html=1;strokeColor=#182E3E;fontColor=#1A1A1A;" edge="1" parent="1" source="t1kR70HvfgsUBX_H_cAn-22">
          <mxGeometry relative="1" as="geometry">
            <mxPoint x="650" y="555" as="targetPoint" />
          </mxGeometry>
        </mxCell>
        <mxCell id="t1kR70HvfgsUBX_H_cAn-22" value="C Grade" style="shape=parallelogram;perimeter=parallelogramPerimeter;whiteSpace=wrap;html=1;fixedSize=1;labelBackgroundColor=none;fillColor=#F5AB50;strokeColor=#909090;fontColor=#1A1A1A;" vertex="1" parent="1">
          <mxGeometry x="315" y="530" width="260" height="50" as="geometry" />
        </mxCell>
        <mxCell id="t1kR70HvfgsUBX_H_cAn-85" style="edgeStyle=orthogonalEdgeStyle;rounded=0;orthogonalLoop=1;jettySize=auto;html=1;strokeColor=#182E3E;fontColor=#1A1A1A;" edge="1" parent="1" source="t1kR70HvfgsUBX_H_cAn-23">
          <mxGeometry relative="1" as="geometry">
            <mxPoint x="650" y="665" as="targetPoint" />
          </mxGeometry>
        </mxCell>
        <mxCell id="t1kR70HvfgsUBX_H_cAn-23" value="B Grade" style="shape=parallelogram;perimeter=parallelogramPerimeter;whiteSpace=wrap;html=1;fixedSize=1;labelBackgroundColor=none;fillColor=#F5AB50;strokeColor=#909090;fontColor=#1A1A1A;" vertex="1" parent="1">
          <mxGeometry x="315" y="640" width="260" height="50" as="geometry" />
        </mxCell>
        <mxCell id="t1kR70HvfgsUBX_H_cAn-86" style="edgeStyle=orthogonalEdgeStyle;rounded=0;orthogonalLoop=1;jettySize=auto;html=1;strokeColor=#182E3E;fontColor=#1A1A1A;" edge="1" parent="1" source="t1kR70HvfgsUBX_H_cAn-24">
          <mxGeometry relative="1" as="geometry">
            <mxPoint x="650" y="775" as="targetPoint" />
          </mxGeometry>
        </mxCell>
        <mxCell id="t1kR70HvfgsUBX_H_cAn-24" value="A Grade" style="shape=parallelogram;perimeter=parallelogramPerimeter;whiteSpace=wrap;html=1;fixedSize=1;labelBackgroundColor=none;fillColor=#F5AB50;strokeColor=#909090;fontColor=#1A1A1A;" vertex="1" parent="1">
          <mxGeometry x="315" y="750" width="260" height="50" as="geometry" />
        </mxCell>
        <mxCell id="t1kR70HvfgsUBX_H_cAn-87" style="edgeStyle=orthogonalEdgeStyle;rounded=0;orthogonalLoop=1;jettySize=auto;html=1;strokeColor=#182E3E;fontColor=#1A1A1A;" edge="1" parent="1" source="t1kR70HvfgsUBX_H_cAn-25">
          <mxGeometry relative="1" as="geometry">
            <mxPoint x="650" y="890" as="targetPoint" />
          </mxGeometry>
        </mxCell>
        <mxCell id="t1kR70HvfgsUBX_H_cAn-25" value="Failed" style="shape=parallelogram;perimeter=parallelogramPerimeter;whiteSpace=wrap;html=1;fixedSize=1;labelBackgroundColor=none;fillColor=#F5AB50;strokeColor=#909090;fontColor=#1A1A1A;" vertex="1" parent="1">
          <mxGeometry x="315" y="865" width="260" height="50" as="geometry" />
        </mxCell>
        <mxCell id="t1kR70HvfgsUBX_H_cAn-88" value="Yes" style="text;html=1;align=center;verticalAlign=middle;resizable=0;points=[];autosize=1;strokeColor=none;fillColor=none;fontColor=#1A1A1A;" vertex="1" parent="1">
          <mxGeometry x="250" y="210" width="40" height="30" as="geometry" />
        </mxCell>
        <mxCell id="t1kR70HvfgsUBX_H_cAn-90" value="Yes" style="text;html=1;align=center;verticalAlign=middle;resizable=0;points=[];autosize=1;strokeColor=none;fillColor=none;fontColor=#1A1A1A;" vertex="1" parent="1">
          <mxGeometry x="250" y="320" width="40" height="30" as="geometry" />
        </mxCell>
        <mxCell id="t1kR70HvfgsUBX_H_cAn-91" value="Yes" style="text;html=1;align=center;verticalAlign=middle;resizable=0;points=[];autosize=1;strokeColor=none;fillColor=none;fontColor=#1A1A1A;" vertex="1" parent="1">
          <mxGeometry x="250" y="530" width="40" height="30" as="geometry" />
        </mxCell>
        <mxCell id="t1kR70HvfgsUBX_H_cAn-92" value="Yes" style="text;html=1;align=center;verticalAlign=middle;resizable=0;points=[];autosize=1;strokeColor=none;fillColor=none;fontColor=#1A1A1A;" vertex="1" parent="1">
          <mxGeometry x="250" y="420" width="40" height="30" as="geometry" />
        </mxCell>
        <mxCell id="t1kR70HvfgsUBX_H_cAn-93" value="Yes" style="text;html=1;align=center;verticalAlign=middle;resizable=0;points=[];autosize=1;strokeColor=none;fillColor=none;fontColor=#1A1A1A;" vertex="1" parent="1">
          <mxGeometry x="250" y="865" width="40" height="30" as="geometry" />
        </mxCell>
        <mxCell id="t1kR70HvfgsUBX_H_cAn-94" value="Yes" style="text;html=1;align=center;verticalAlign=middle;resizable=0;points=[];autosize=1;strokeColor=none;fillColor=none;fontColor=#1A1A1A;" vertex="1" parent="1">
          <mxGeometry x="250" y="750" width="40" height="30" as="geometry" />
        </mxCell>
        <mxCell id="t1kR70HvfgsUBX_H_cAn-95" value="Yes" style="text;html=1;align=center;verticalAlign=middle;resizable=0;points=[];autosize=1;strokeColor=none;fillColor=none;fontColor=#1A1A1A;" vertex="1" parent="1">
          <mxGeometry x="250" y="640" width="40" height="30" as="geometry" />
        </mxCell>
        <mxCell id="t1kR70HvfgsUBX_H_cAn-97" value="No" style="text;html=1;align=center;verticalAlign=middle;resizable=0;points=[];autosize=1;strokeColor=none;fillColor=none;fontColor=#1A1A1A;" vertex="1" parent="1">
          <mxGeometry x="190" y="270" width="40" height="30" as="geometry" />
        </mxCell>
        <mxCell id="t1kR70HvfgsUBX_H_cAn-98" value="No" style="text;html=1;align=center;verticalAlign=middle;resizable=0;points=[];autosize=1;strokeColor=none;fillColor=none;fontColor=#1A1A1A;" vertex="1" parent="1">
          <mxGeometry x="192" y="380" width="40" height="30" as="geometry" />
        </mxCell>
        <mxCell id="t1kR70HvfgsUBX_H_cAn-100" value="No" style="text;html=1;align=center;verticalAlign=middle;resizable=0;points=[];autosize=1;strokeColor=none;fillColor=none;fontColor=#1A1A1A;" vertex="1" parent="1">
          <mxGeometry x="190" y="485" width="40" height="30" as="geometry" />
        </mxCell>
        <mxCell id="t1kR70HvfgsUBX_H_cAn-101" value="No" style="text;html=1;align=center;verticalAlign=middle;resizable=0;points=[];autosize=1;strokeColor=none;fillColor=none;fontColor=#1A1A1A;" vertex="1" parent="1">
          <mxGeometry x="192" y="595" width="40" height="30" as="geometry" />
        </mxCell>
        <mxCell id="t1kR70HvfgsUBX_H_cAn-102" value="No" style="text;html=1;align=center;verticalAlign=middle;resizable=0;points=[];autosize=1;strokeColor=none;fillColor=none;fontColor=#1A1A1A;" vertex="1" parent="1">
          <mxGeometry x="191" y="825" width="40" height="30" as="geometry" />
        </mxCell>
        <mxCell id="t1kR70HvfgsUBX_H_cAn-104" value="No" style="text;html=1;align=center;verticalAlign=middle;resizable=0;points=[];autosize=1;strokeColor=none;fillColor=none;fontColor=#1A1A1A;" vertex="1" parent="1">
          <mxGeometry x="193" y="720" width="40" height="30" as="geometry" />
        </mxCell>
      </root>
    </mxGraphModel>
  </diagram>
</mxfile>
